{"title":"18+ 2 Jennifer 2016 UNCENSORED Movies HDRip XviD New +Sample ☻rD","uid":15602264,"size":739555052,"categoryP":"video","categoryS":"movies","magnet":"?xt=urn:btih:d66fa958b1d0529fec62e7e0e0dfd6ec396bc9f3&amp;dn=18%2B+2+Jennifer+2016+UNCENSORED+Movies+HDRip+XviD+New+%2BSample+%E2%98%BBrD&amp;tr=udp%3A%2F%2Ftracker.leechers-paradise.org%3A6969&amp;tr=udp%3A%2F%2Fzer0day.ch%3A1337&amp;tr=udp%3A%2F%2Fopen.demonii.com%3A1337&amp;tr=udp%3A%2F%2Ftracker.coppersurfer.tk%3A6969&amp;tr=udp%3A%2F%2Fexodus.desync.com%3A6969","seeders":1,"leechers":0,"uploader":"basicssom","files":2,"time":1471671010,"description":"----------------------------------------------------------------\r\n18+ 2 Jennifer 2016 UNCENSORED English Movies HDRip XviD AAC New Source with Sample ☻rDX☻\r\n\r\nSCREEN SHOTS &amp; POSTER:\r\n  \nhttp://postimage.co.nr/2016/8/fixeddeposite/index.htm  \nhttp://postimage.co.nr/2016/8/fixeddeposite/1.html  \nhttp://postimage.co.nr/2016/8/fixeddeposite/2.html  \nhttp://postimage.co.nr/2016/8/fixeddeposite/3.html  \nhttp://postimage.co.nr/2016/8/fixeddeposite/4.html  \nhttp://postimage.co.nr/2016/8/fixeddeposite/5.html  \nhttp://postimage.co.nr/2016/8/fixeddeposite/6.html  \nhttp://postimage.co.nr/2016/8/fixeddeposite/7.html  \nhttp://postimage.co.nr/2016/8/fixeddeposite/8.html  \nhttp://postimage.co.nr/2016/8/fixeddeposite/9.html  \nhttp://postimage.co.nr/2016/8/fixeddeposite/10.html\r\n\r\nFormat                                   : Matroska\r\nFormat version                           : Version 4 / Version 2\r\nFile size                                : 699 MiB\r\nDuration                                 : 1 h 23 min\r\nOverall bit rate mode                    : Constant\r\nOverall bit rate                         : 1 170 kb/s\r\nMovie name                               : 18+ 2 Jennifer 2016 UNCENSORED English Movies HDRip XviD AAC New Source ☻rDX☻\r\n\r\nVideo\r\nID                                       : 2\r\nFormat                                   : AVC\r\nFormat/Info                              : Advanced Video Codec\r\nFormat profile                           :   \r\nFormat settings, CABAC                   : Yes\r\nFormat settings, ReFrames                : 2 frames\r\nFormat settings, GOP                     : M=1, N=12\r\nCodec ID                                 : V_MPEG4/ISO/AVC\r\nDuration                                 : 1 h 23 min\r\nBit rate mode                            : Constant\r\nBit rate                                 : 979 kb/s\r\nWidth                                    : 720 pixels\r\nHeight                                   : 400 pixels\r\nDisplay aspect ratio                     : 16:9\r\nFrame rate mode                          : Constant\r\nFrame rate                               : 23.976 FPS\r\nColor space                              : YUV\r\nChroma subsampling                       : 4:2:0\r\nBit depth                                : 8 bits\r\nScan type                                : Progressive\r\nBits/(Pixel*Frame)                       : 0.142\r\nStream size                              : 571 MiB (82%)\r\nTitle                                    : ☻rDX☻\r\nDefault                                  : Yes\r\nForced                                   : No\r\n\r\nAudio\r\nID                                       : 1\r\nFormat                                   : AC-3\r\nFormat/Info                              : Audio Coding 3\r\nMode extension                           : CM (complete main)\r\nFormat settings, Endianness              : Big\r\nCodec ID                                 : A_AC3\r\nDuration                                 : 1 h 23 min\r\nBit rate mode                            : Constant\r\nBit rate                                 : 192 kb/s\r\nChannel(s)                               : 2 channels\r\nChannel positions                        : Front: L R\r\nSampling rate                            : 48.0 kHz\r\nFrame rate                               : 31.250 FPS (1536 spf)\r\nCompression mode                         : Lossy\r\nStream size                              : 115 MiB (16%)\r\nTitle                                    : ☻rDX☻ac3\r\nDefault                                  : Yes\r\nForced                                   : No\r\n\r\nIMDB \nhttp://www.imdb.com/title/tt4627224/","torrent":{"xt":"urn:btih:d66fa958b1d0529fec62e7e0e0dfd6ec396bc9f3","amp;dn":"18%2B+2+Jennifer+2016+UNCENSORED+Movies+HDRip+XviD+New+%2BSample+%E2%98%BBrD","amp;tr":["udp%3A%2F%2Ftracker.leechers-paradise.org%3A6969","udp%3A%2F%2Fzer0day.ch%3A1337","udp%3A%2F%2Fopen.demonii.com%3A1337","udp%3A%2F%2Ftracker.coppersurfer.tk%3A6969","udp%3A%2F%2Fexodus.desync.com%3A6969"],"infoHash":"d66fa958b1d0529fec62e7e0e0dfd6ec396bc9f3","infoHashBuffer":{"type":"Buffer","data":[214,111,169,88,177,208,82,159,236,98,231,224,224,223,214,236,57,107,201,243]},"announce":[],"urlList":[]}}